<?xml version="1.0" encoding="utf-8"?>
<!-- Generator: Adobe Illustrator 24.0.1, SVG Export Plug-In . SVG Version: 6.00 Build 0)  -->
<svg version="1.1" id="Capa_1" xmlns="http://www.w3.org/2000/svg" xmlns:xlink="http://www.w3.org/1999/xlink" x="0px" y="0px"
	 viewBox="0 0 1024 296.5" style="enable-background:new 0 0 1024 296.5;" xml:space="preserve">
<style type="text/css">
	.st0{fill:#FFFFFF;}
</style>
<g>
	<g>
		<path class="st0" d="M563.1,256.4l-0.3,0.3c-5,4.3-10.1,2.6-12.2,1c-0.9-0.7-8.5-6.1-11.8-16.2c-0.8-2.6-2.1-4.3-3.7-5.1
			c-2.1-1-4.3-0.3-4.4-0.3l-1.5,0.5l-11.5-12.2c-15.1,12.2-33.2,19.6-52.6,21.3l0.2,14.8l-1.5,0.7c0,0-2.1,1.1-2.9,3.3
			c-0.6,1.7-0.3,3.8,0.9,6.2c4.7,9.5,3,18.7,2.8,19.8c-0.4,2.6-2.8,7.4-9.4,7.8h-0.1h-0.3c-6.6-0.4-9.1-5.2-9.4-7.8
			c-0.2-1.1-1.8-10.3,2.8-19.8c1.2-2.4,1.5-4.5,0.9-6.2c-0.8-2.2-2.9-3.3-2.9-3.3l-1.5-0.7l0.2-15c-18.1-2.1-35-9.2-49.3-20.5
			l-11,11.6l-1.5-0.5c0,0-2.3-0.7-4.4,0.3c-1.6,0.8-2.9,2.5-3.7,5c-3.3,10-10.8,15.5-11.8,16.2c-2.1,1.6-7.1,3.3-12.2-1l-0.3-0.3
			c-4.5-4.9-2.9-10.1-1.3-12.2c0.6-1,5.9-8.7,15.8-12.2c2.5-0.9,4.2-2.2,5-3.9c1-2.1,0.2-4.3,0.2-4.4l-0.6-1.5l11.4-11.4
			c-6.6-7.9-11.8-16.7-15.6-26.1c-0.4-0.9,0.7-1.7,1.5-1.2c4.7,3,9.6,4.8,14.8,5.4c0.1,0,0.3,0,0.4,0v0.2c0,0.2,0,0.4,0.1,0.6
			c0.2,1.3,0.8,2.4,1.8,3.1c14.9,24.2,41.7,40.4,72.2,40.4c31,0,58.2-16.7,72.9-41.6c6.1-0.7,11.5-3.1,15.8-7.1
			c0.8-0.7,2,0.1,1.6,1.1c-3.6,8.8-8.5,17-14.6,24.5l12,12l-0.6,1.5c0,0-0.8,2.3,0.2,4.4c0.8,1.6,2.4,2.9,4.9,3.8
			c10,3.6,15.2,11.3,15.8,12.2C566,246.3,567.6,251.5,563.1,256.4z"/>
		<path class="st0" d="M608.2,148.8L608.2,148.8v0.4c-0.5,6.6-5.3,9-7.9,9.3c-1.1,0.2-10.3,1.7-19.8-3.1c-2.4-1.2-4.5-1.5-6.2-1
			c-2.3,0.7-3.4,2.9-3.4,2.9l-0.7,1.4h-1.6l-15.2-0.4c-0.2,1.6-0.4,3.2-0.6,4.8c-0.3,1.9-2.1,3-3.9,2.8c-0.2,0-0.4,0-0.6,0l0,0h-0.1
			c-1,0-1.9,0.3-2.6,0.8c-2.9,1.9-5.4,3.5-7.6,4.7c2.2-7.9,3.3-16.3,3.1-25c-1-44.4-36.7-80.8-81-82.7
			c-48.6-2.1-88.7,36.6-88.7,84.8c0,8.5,1.2,16.7,3.6,24.4c-1.6-0.4-3.3-1-5-1.6s-3.4-1.2-5.2-1.7c-0.4-0.1-0.9-0.2-1.3-0.2
			c-0.2,0-0.3,0-0.5,0c-1.1,0.1-2.1-0.5-2.4-1.6c-0.6-3.1-1.1-6.3-1.4-9.5l-16.8,0.5l-0.7-1.5c0,0-1.1-2.1-3.4-2.9
			c-1.7-0.6-3.8-0.2-6.2,1c-9.4,4.8-18.6,3.3-19.8,3.1c-2.6-0.3-7.4-2.7-7.9-9.3V149v-0.2c0.3-6.6,5.1-9.1,7.7-9.5
			c1.1-0.2,10.3-2,19.9,2.5c2.4,1.2,4.5,1.4,6.2,0.8c2.2-0.8,3.2-2.9,3.2-3l0.6-1.5h17.2c2-19.3,9.7-37.3,22.2-52.3l-11.6-11.6
			l0.6-1.5c0,0,0.8-2.2-0.2-4.4c-0.8-1.6-2.4-2.9-4.9-3.8c-10-3.6-15.2-11.3-15.8-12.2c-1.5-2.1-3.1-7.2,1.3-12.2l0.3-0.3
			c5-4.3,10.1-2.6,12.2-1c0.9,0.7,8.5,6.1,11.8,16.2c0.8,2.6,2.1,4.3,3.7,5.1c2.1,1,4.3,0.3,4.4,0.3l1.5-0.5l11.3,12
			c14.2-11.2,31.1-18.2,49-20.3L444.8,36l1.5-0.7c0,0,2.1-1.1,2.9-3.3c0.6-1.7,0.3-3.8-0.9-6.2c-4.7-9.5-3-18.7-2.8-19.8
			c0.4-2.6,2.8-7.4,9.4-7.8h0.4c6.6,0.4,9.1,5.2,9.4,7.8c0.2,1.1,1.8,10.3-2.8,19.8c-1.2,2.4-1.5,4.5-0.9,6.2
			c0.8,2.3,2.9,3.3,2.9,3.3l1.4,0.7v1.6l-0.2,13.7c19.2,1.7,37.2,9,52.3,21.1l11.8-12.5l1.5,0.5c0,0,2.3,0.7,4.4-0.3
			c1.6-0.8,2.9-2.5,3.7-5c3.3-10,10.8-15.5,11.8-16.2c2.1-1.6,7.1-3.3,12.2,1l0.3,0.3c4.5,4.9,2.9,10,1.3,12.2
			c-0.6,1-5.9,8.7-15.8,12.2c-2.5,0.9-4.2,2.2-5,3.9c-1,2.1-0.2,4.3-0.2,4.4l0.6,1.5l-12.3,12.3c12.2,14.8,19.6,32.6,21.7,51.6h17.2
			l0.6,1.5c0,0,1,2.2,3.3,3c1.7,0.6,3.8,0.4,6.2-0.8c9.6-4.5,18.7-2.8,19.9-2.5C603.2,139.7,607.9,142.2,608.2,148.8z"/>
		<g>
			<path class="st0" d="M456.4,223c-24.9,0-46.9-12.2-60.4-31c-1.2,0.5-2.5,0.9-3.9,1c14.1,20.4,37.7,33.7,64.3,33.7
				c27.8,0,52.3-14.6,66.1-36.5c-1.4,0-2.8-0.1-4.2-0.4C505,209.8,482.2,223,456.4,223z"/>
			<path class="st0" d="M456.4,70.3c-43.1,0-78.2,35.1-78.2,78.2c0,8.3,1.3,16.2,3.7,23.7c1.2,0,2.6-0.1,3.9-0.4
				c-2.4-7.4-3.7-15.2-3.7-23.4c0-41.1,33.3-74.4,74.4-74.4s74.4,33.3,74.4,74.4c0,8.3-1.4,16.4-3.9,23.8c1.2,0.1,2.6,0,4.1-0.2
				c2.4-7.5,3.7-15.4,3.7-23.6C534.6,105.4,499.5,70.3,456.4,70.3z"/>
		</g>
		<path class="st0" d="M382.4,189.7c-0.2-0.3-0.3-0.5-0.5-0.8c0.1,0,0.3,0,0.4,0v0.2C382.3,189.4,382.3,189.6,382.4,189.7z"/>
		<path class="st0" d="M386.5,164.9l-0.1,0.1v-0.1H386.5z"/>
		<path class="st0" d="M548,171.5c-0.3-0.2-0.7-0.3-1-0.1c-19.7,12.8-24.1,10.6-51.8-3.8c0.6-1.1,2.1-4,4.2-7.7
			c8.3-14.4,15.4-23.7,20.2-26.2l0.1-0.1c0.8-0.7,1.4-2.3,1.2-3.3c-0.9-4.3-1.9-8.6-3-13.2c-0.4-1.7-0.8-3.5-1.2-5.3
			c0-0.1-0.1-0.8-0.8-1.3c-0.9-0.6-2.2-0.7-4-0.2c-10.8,2.6-19.6,5.1-27.7,7.9c-29.8,10-54.7,23.1-75.8,40c1.4-1.8,3.1-3.7,3.7-4.4
			c20-20.1,37.9-30.9,61.9-37.2c7.4-2,9-4.1,8.5-12.1V104l-0.5,0.1c-28.3,3.9-75.6,32.2-80.6,59.9l-0.6,0.5c-0.6,0.5-1.2,1-1.8,1.5
			c-4.6,4-5.2,7.6-4.7,10c-3.6,1.5-8.2,2.4-12.7,2.4c-0.1,0-0.2,0-0.3,0c-3.7,0-7.5-1.3-11.1-2.6c-1.1-0.4-2.2-0.8-3.3-1.1
			c-0.4-0.1-0.8,0-1,0.4s-0.1,0.8,0.2,1.1c6.6,5.9,13.3,8.7,21,8.7c0,0,0,0,0.1,0c6.3,0,12.2-2,19.1-6.4c1.2-0.8,2-1.3,2.4-1.2
			s0.8,0.7,1.6,1.8c-5.1,5.8-12.1,7.3-19.4,9c-0.8,0.2-1.5,0.4-2.3,0.5l-2.3,0.5l2.3,0.4c9.2,1.6,17-2,24-6c1.3-0.8,3.5-1.2,4.5-0.7
			c13.3,6.8,25.2,6,36.6-2.7c0.6-0.5,1.8-0.5,2.9-0.5c0.4,0,0.8,0,1.2,0l0.1,0.9c-6.1,5.9-13.6,9.1-23.2,9.9l-3.6,0.3l3.5,0.7
			c8.1,1.6,16.1-0.4,25-6.1c0.9-0.6,2-1,3.1-1.4c0.4-0.1,0.8-0.3,1.2-0.4l0.6,1.3l-14.1,9.4l2.8-0.7c3.8-1,7.4-2.7,10.8-4.4
			c0.6-0.3,1.2-0.6,1.8-0.9c0.3-0.2,0.7-0.4,1.1-0.5c1.4-0.7,3-1.6,4.2-1.3c10.5,2.3,19.6,0,27.8-6.9c0.5-0.4,1.5-0.4,2.5-0.3
			c0.4,0,0.7,0,1.1,0l0.1,1c-5.5,5.1-12.5,8.2-21.8,9.5l-2.7,0.4l2.6,0.6c1.9,0.4,3.5,0.6,5.1,0.5c7.5-0.1,13.7-3.6,19.4-7.2
			c0.7-0.4,1.6-0.6,2.6-0.8c0.3-0.1,0.6-0.1,0.9-0.2l0.5,1.2l-12.9,8.8l2.5-0.6c4.6-1.1,8-2.5,10.6-4.3c2.9-2,5.4-2.5,8.9-1.6
			c13.3,3.5,25-2.1,29.8-14.1C548.4,172.2,548.3,171.8,548,171.5z M491.7,170l-0.2,0.2c-5.3,5.2-10.2,10.2-18.2,10
			c-8.8-0.2-15.1-5.1-21.7-11.1c-0.3-0.3-0.9-0.3-1.2,0c-8.1,8.3-18.8,12.5-27.9,10.9c-5.9-1-10.4-4.3-13-9.4l4-0.7
			c23.8-4.4,48.4-8.9,73.7-1.3c1.3,0.4,2.5,0.8,3.2,1C490.9,169.9,491.3,170,491.7,170z"/>
	</g>
	<g>
		<path class="st0" d="M29.1,140.1l11.1-17.7h16.4v0.7l-20.5,30.4V174H21.6v-20.6L2,123v-0.6h16.4L29.1,140.1z"/>
		<path class="st0" d="M94.2,165.5h-23l-3.4,8.5H52.3l23.1-51.6h14.7l23.1,51.6H97.6L94.2,165.5z M82.7,136.8l-6.6,16.4h13.2
			L82.7,136.8z"/>
		<path class="st0" d="M165.5,167.3c-5.8,5.7-12.9,8-20.7,8c-20.3,0-28.1-12.7-28.2-26.7c-0.1-13.3,8.8-27.3,28.2-27.3
			c7.4,0,14.1,2.6,20,8.3l-9,8.8c-3.7-3.5-7.5-4.5-11-4.5c-9.9,0-13.8,8.1-13.8,14.8c0.1,6.7,3.6,14.3,13.8,14.3
			c3.5,0,8.5-1.5,12.2-5.2L165.5,167.3z"/>
		<path class="st0" d="M208.3,174v-19.5h-18.6V174h-14.6v-51.6h14.6V142h18.6v-19.6h14.4V174H208.3z"/>
		<path class="st0" d="M247.8,134.4h-15v-12h44.6v12h-15.1V174h-14.5L247.8,134.4L247.8,134.4z"/>
	</g>
	<g>
		<path class="st0" d="M677.3,143.1l-13.2,15.6h-2.6l-12.9-15.5v30.6h-14.4v-51.6h15.2l13.6,17.5l13.6-17.5h15.2v51.6h-14.4
			L677.3,143.1L677.3,143.1z"/>
		<path class="st0" d="M741.4,165.3h-23.1l-3.4,8.5h-15.5l23.1-51.6h14.7l23.1,51.6h-15.6L741.4,165.3z M729.9,136.7l-6.6,16.4h13.2
			L729.9,136.7z"/>
		<path class="st0" d="M799.6,136.5c-3.5-2.7-7.6-3.5-12.1-3.5c-3.5,0-7,1.1-7,3.8c0,3.5,3.5,4,8.5,4.6c10.2,1.1,20.9,5.2,20.9,17.1
			c0,11.7-11,16.7-22.6,16.8c-9.3,0.1-15.9-1.5-23.1-9.1l8-9.2c5.1,4.9,10.8,5.8,15.1,5.8c4.8,0,8.1-1.7,8.1-4.6
			c0-2.6-2.9-4.2-8.6-4.7c-11.3-1-21-3.9-21-16.7c0-10.9,10.7-15.6,21.6-15.6c7.7,0,13.8,1.8,19.3,6.1L799.6,136.5z"/>
		<path class="st0" d="M831,134.3h-15v-12h44.6v12h-15.1v39.6H831V134.3z"/>
		<path class="st0" d="M911.9,173.8h-41.3v-51.6h40.2v12.2H885v7.4h24.4v11.9H885v7.8h26.9V173.8z"/>
		<path class="st0" d="M971.6,173.8h-16.1l-12-16.7h-5.1v16.7h-14.6v-51.6H949c13.2,0,20,8.5,20,17.8c0,6.3-2.2,11.7-10.9,15.5
			l13.4,17.4L971.6,173.8L971.6,173.8z M938.5,133.9v12.4h10.8c3.8,0,5.5-2.9,5.5-6c0-3.2-1.8-6.4-5.7-6.4H938.5z"/>
		<path class="st0" d="M1013.6,136.5c-3.5-2.7-7.6-3.5-12.1-3.5c-3.5,0-7,1.1-7,3.8c0,3.5,3.5,4,8.5,4.6
			c10.2,1.1,20.9,5.2,20.9,17.1c0,11.7-11,16.7-22.6,16.8c-9.3,0.1-15.9-1.5-23.1-9.1l8-9.2c5.1,4.9,10.8,5.8,15.1,5.8
			c4.8,0,8.1-1.7,8.1-4.6c0-2.6-2.9-4.2-8.6-4.7c-11.3-1-21-3.9-21-16.7c0-10.9,10.7-15.6,21.6-15.6c7.7,0,13.8,1.8,19.3,6.1
			L1013.6,136.5z"/>
	</g>
</g>
</svg>
