<?xml version="1.0" encoding="utf-8"?>
<!-- Generator: Adobe Illustrator 24.0.1, SVG Export Plug-In . SVG Version: 6.00 Build 0)  -->
<svg version="1.1" id="Capa_1" xmlns="http://www.w3.org/2000/svg" xmlns:xlink="http://www.w3.org/1999/xlink" x="0px" y="0px"
	 viewBox="0 0 1024 1024" style="enable-background:new 0 0 1024 1024;" xml:space="preserve">
<style type="text/css">
	.st0{fill:#FFFFFF;}
</style>
<g>
	<path class="st0" d="M867.3,871.7l-1,1c-16.6,14.3-33.6,8.6-40.6,3.3c-3-2.3-28.3-20.3-39.3-53.9c-2.7-8.6-7-14.3-12.3-17
		c-7-3.3-14.3-1-14.6-1l-5,1.7l-38.3-40.6c-50.2,40.6-110.4,65.2-175,70.9l0.7,49.2l-5,2.3c0,0-7,3.7-9.6,11c-2,5.7-1,12.6,3,20.6
		c15.6,31.6,10,62.2,9.3,65.9c-1.3,8.6-9.3,24.6-31.3,25.9H508h-1c-22-1.3-30.3-17.3-31.3-25.9c-0.7-3.7-6-34.3,9.3-65.9
		c4-8,5-15,3-20.6c-2.7-7.3-9.6-11-9.6-11l-5-2.3l0.7-49.9c-60.2-7-116.4-30.6-164-68.2l-36.6,38.6l-5-1.7c0,0-7.7-2.3-14.6,1
		c-5.3,2.7-9.6,8.3-12.3,16.6c-11,33.3-35.9,51.6-39.3,53.9c-7,5.3-23.6,11-40.6-3.3l-1-1c-15-16.3-9.6-33.6-4.3-40.6
		c2-3.3,19.6-28.9,52.6-40.6c8.3-3,14-7.3,16.6-13c3.3-7,0.7-14.3,0.7-14.6l-2-5l37.9-37.9c-22-26.3-39.3-55.6-51.9-86.8
		c-1.3-3,2.3-5.7,5-4c15.6,10,31.9,16,49.2,18c0.3,0,1,0,1.3,0v0.7c0,0.7,0,1.3,0.3,2c0.7,4.3,2.7,8,6,10.3
		c49.6,80.5,138.7,134.4,240.2,134.4c103.1,0,193.6-55.6,242.5-138.4c20.3-2.3,38.3-10.3,52.6-23.6c2.7-2.3,6.7,0.3,5.3,3.7
		c-12,29.3-28.3,56.5-48.6,81.5l39.9,39.9l-2,5c0,0-2.7,7.7,0.7,14.6c2.7,5.3,8,9.6,16.3,12.6c33.3,12,50.6,37.6,52.6,40.6
		C876.9,838.2,882.2,855.4,867.3,871.7z"/>
	<path class="st0" d="M1017.3,513.8L1017.3,513.8v1.3c-1.7,22-17.6,29.9-26.3,30.9c-3.7,0.7-34.3,5.7-65.9-10.3c-8-4-15-5-20.6-3.3
		c-7.7,2.3-11.3,9.6-11.3,9.6l-2.3,4.7h-5.3l-50.6-1.3c-0.7,5.3-1.3,10.6-2,16c-1,6.3-7,10-13,9.3c-0.7,0-1.3,0-2,0l0,0h-0.3
		c-3.3,0-6.3,1-8.6,2.7c-9.6,6.3-18,11.6-25.3,15.6c7.3-26.3,11-54.2,10.3-83.2C790.8,358.2,672,237.1,524.6,230.8
		c-161.7-7-295,121.7-295,282.1c0,28.3,4,55.6,12,81.2c-5.3-1.3-11-3.3-16.6-5.3c-5.7-2-11.3-4-17.3-5.7c-1.3-0.3-3-0.7-4.3-0.7
		c-0.7,0-1,0-1.7,0c-3.7,0.3-7-1.7-8-5.3c-2-10.3-3.7-21-4.7-31.6l-55.9,1.7l-2.3-5c0,0-3.7-7-11.3-9.6c-5.7-2-12.6-0.7-20.6,3.3
		c-31.3,16-61.9,11-65.9,10.3c-8.6-1-24.6-9-26.3-30.9v-0.7v-0.7c1-22,17-30.3,25.6-31.6c3.7-0.7,34.3-6.7,66.2,8.3
		c8,4,15,4.7,20.6,2.7c7.3-2.7,10.6-9.6,10.6-10l2-5H189c6.7-64.2,32.3-124.1,73.8-174l-38.6-38.6l2-5c0,0,2.7-7.3-0.7-14.6
		c-2.7-5.3-8-9.6-16.3-12.6c-33.3-12-50.6-37.6-52.6-40.6c-5-7-10.3-23.9,4.3-40.6l1-1c16.6-14.3,33.6-8.6,40.6-3.3
		c3,2.3,28.3,20.3,39.3,53.9c2.7,8.6,7,14.3,12.3,17c7,3.3,14.3,1,14.6,1l5-1.7l37.6,39.9c47.2-37.3,103.5-60.5,163-67.5l-0.7-51.9
		l5-2.3c0,0,7-3.7,9.6-11c2-5.7,1-12.6-3-20.6c-15.6-31.6-10-62.2-9.3-65.9c1.3-8.6,9.3-24.6,31.3-25.9h1.3
		c22,1.3,30.3,17.3,31.3,25.9c0.7,3.7,6,34.3-9.3,65.9c-4,8-5,15-3,20.6c2.7,7.7,9.6,11,9.6,11l4.7,2.3v5.3l-0.7,45.6
		c63.9,5.7,123.7,29.9,174,70.2l39.3-41.6l5,1.7c0,0,7.7,2.3,14.6-1c5.3-2.7,9.6-8.3,12.3-16.6c11-33.3,35.9-51.6,39.3-53.9
		c7-5.3,23.6-11,40.6,3.3l1,1c15,16.3,9.6,33.3,4.3,40.6c-2,3.3-19.6,28.9-52.6,40.6c-8.3,3-14,7.3-16.6,13
		c-3.3,7-0.7,14.3-0.7,14.6l2,5l-40.9,40.9c40.6,49.2,65.2,108.4,72.2,171.6h57.2l2,5c0,0,3.3,7.3,11,10c5.7,2,12.6,1.3,20.6-2.7
		c31.9-15,62.2-9.3,66.2-8.3C1000.6,483.6,1016.3,491.9,1017.3,513.8z"/>
	<g>
		<path class="st0" d="M512.3,760.6c-82.8,0-156-40.6-200.9-103.1c-4,1.7-8.3,3-13,3.3C345.3,728.7,423.9,773,512.3,773
			c92.5,0,174-48.6,219.9-121.4c-4.7,0-9.3-0.3-14-1.3C674,716.7,598.2,760.6,512.3,760.6z"/>
		<path class="st0" d="M512.3,252.7c-143.4,0-260.1,116.8-260.1,260.1c0,27.6,4.3,53.9,12.3,78.8c4,0,8.6-0.3,13-1.3
			c-8-24.6-12.3-50.6-12.3-77.8C265.2,375.8,376,265,512.7,265s247.5,110.8,247.5,247.5c0,27.6-4.7,54.6-13,79.2
			c4,0.3,8.6,0,13.6-0.7c8-24.9,12.3-51.2,12.3-78.5C772.5,369.5,655.7,252.7,512.3,252.7z"/>
	</g>
	<path class="st0" d="M266.2,649.9c-0.7-1-1-1.7-1.7-2.7c0.3,0,1,0,1.3,0v0.7C265.8,648.9,265.8,649.5,266.2,649.9z"/>
	<path class="st0" d="M279.8,567.4l-0.3,0.3v-0.3H279.8z"/>
	<path class="st0" d="M817,589.3c-1-0.7-2.3-1-3.3-0.3c-65.5,42.6-80.2,35.3-172.3-12.6c2-3.7,7-13.3,14-25.6
		c27.6-47.9,51.2-78.8,67.2-87.2l0.3-0.3c2.7-2.3,4.7-7.7,4-11c-3-14.3-6.3-28.6-10-43.9c-1.3-5.7-2.7-11.6-4-17.6
		c0-0.3-0.3-2.7-2.7-4.3c-3-2-7.3-2.3-13.3-0.7c-35.9,8.6-65.2,17-92.1,26.3c-99.1,33.3-182,76.8-252.1,133.1
		c4.7-6,10.3-12.3,12.3-14.6c66.5-66.9,126.1-102.8,205.9-123.7c24.6-6.7,29.9-13.6,28.3-40.2v-1.7l-1.7,0.3
		c-94.1,13-251.5,107.1-268.1,199.3l-2,1.7c-2,1.7-4,3.3-6,5c-15.3,13.3-17.3,25.3-15.6,33.3c-12,5-27.3,8-42.2,8c-0.3,0-0.7,0-1,0
		c-12.3,0-24.9-4.3-36.9-8.6c-3.7-1.3-7.3-2.7-11-3.7c-1.3-0.3-2.7,0-3.3,1.3c-0.7,1.3-0.3,2.7,0.7,3.7c22,19.6,44.2,28.9,69.9,28.9
		c0,0,0,0,0.3,0c21,0,40.6-6.7,63.5-21.3c4-2.7,6.7-4.3,8-4s2.7,2.3,5.3,6c-17,19.3-40.2,24.3-64.5,29.9c-2.7,0.7-5,1.3-7.7,1.7
		l-7.7,1.7l7.7,1.3c30.6,5.3,56.5-6.7,79.8-20c4.3-2.7,11.6-4,15-2.3c44.2,22.6,83.8,20,121.7-9c2-1.7,6-1.7,9.6-1.7
		c1.3,0,2.7,0,4,0l0.3,3c-20.3,19.6-45.2,30.3-77.2,32.9l-12,1l11.6,2.3c26.9,5.3,53.6-1.3,83.2-20.3c3-2,6.7-3.3,10.3-4.7
		c1.3-0.3,2.7-1,4-1.3l2,4.3l-46.9,31.3l9.3-2.3c12.6-3.3,24.6-9,35.9-14.6c2-1,4-2,6-3c1-0.7,2.3-1.3,3.7-1.7
		c4.7-2.3,10-5.3,14-4.3c34.9,7.7,65.2,0,92.5-23c1.7-1.3,5-1.3,8.3-1c1.3,0,2.3,0,3.7,0l0.3,3.3c-18.3,17-41.6,27.3-72.5,31.6
		l-9,1.3l8.6,2c6.3,1.3,11.6,2,17,1.7c24.9-0.3,45.6-12,64.5-23.9c2.3-1.3,5.3-2,8.6-2.7c1-0.3,2-0.3,3-0.7l1.7,4l-42.9,29.3l8.3-2
		c15.3-3.7,26.6-8.3,35.3-14.3c9.6-6.7,18-8.3,29.6-5.3c44.2,11.6,83.2-7,99.1-46.9C818.4,591.7,818,590.3,817,589.3z M629.8,584.3
		l-0.7,0.7c-17.6,17.3-33.9,33.9-60.5,33.3c-29.3-0.7-50.2-17-72.2-36.9c-1-1-3-1-4,0c-26.9,27.6-62.5,41.6-92.8,36.3
		c-19.6-3.3-34.6-14.3-43.2-31.3l13.3-2.3c79.2-14.6,161-29.6,245.2-4.3c4.3,1.3,8.3,2.7,10.6,3.3
		C627.1,584,628.4,584.3,629.8,584.3z"/>
</g>
</svg>
